<svg id="Capa_1" enable-background="new 0 0 512.086 512.086" height="512" viewBox="0 0 512.086 512.086" width="512" xmlns="http://www.w3.org/2000/svg"><g><path d="m510.422 189.519c-67.625-135.248-215.328-138.525-283.965-121.366l-215.074 53.519c-8.551 2.128-13.455 11.159-10.537 19.506l21.48 61.446c7.885 23.455 33.259 36.222 56.883 28.348.14-.047.279-.095.418-.146l160.701-58.896c82.569-30.262 177.475-16.353 247.677 36.299 12.617 9.462 29.468-4.606 22.417-18.71zm-280.417-45.758-160.459 58.807c-7.805 2.499-16.194-1.731-18.797-9.544-.023-.069-16.154-46.214-16.154-46.214l199.122-49.549c49.53-12.383 145.587-12.908 211.287 51.932-70.495-29.832-147.701-30.097-214.999-5.432z"/><path d="m457.005 274.228c-30.411 18.195-88.561 87-198.812 87-82.81 0-128.909-38.575-175.48-58.417-7.41-3.704-16.42-.701-20.125 6.708s-.701 16.42 6.708 20.125l22.302 11.151-24.112 36.169c-4.595 6.893-2.732 16.206 4.161 20.801 6.862 4.576 16.185 2.763 20.801-4.16l26.192-39.289c10.799 5.15 24.15 13.025 47.109 21.085l-11.161 44.644c-2.009 8.037 2.877 16.181 10.914 18.19 8.001 1.999 16.172-2.84 18.19-10.914l10.876-43.502c15.254 3.581 30.808 5.885 46.436 6.864v45.545c0 8.284 6.716 15 15 15s15-6.716 15-15v-45.313c15.71-.738 31.329-2.827 46.66-6.2l10.924 43.693c2.018 8.071 10.186 12.916 18.19 10.914 8.037-2.009 12.923-10.153 10.914-18.19l-11.103-44.411c16.493-5.524 32.471-12.581 47.672-21.066l25.409 38.114c4.61 6.915 13.93 8.741 20.801 4.16 6.893-4.595 8.756-13.908 4.161-20.801l-24.997-37.496c5.881-4.181 4.22-3.089 55.37-41.403 6.627-4.971 7.971-14.373 3-21-4.97-6.628-14.371-7.972-21-3.001z"/></g></svg>